<svg width="600" height="400" viewBox="0 0 600 400" xmlns="http://www.w3.org/2000/svg">
  <defs>
    <linearGradient id="learningGrad" x1="0%" y1="0%" x2="100%" y2="100%">
      <stop offset="0%" style="stop-color:#7c3aed;stop-opacity:1" />
      <stop offset="100%" style="stop-color:#6d28d9;stop-opacity:1" />
    </linearGradient>
  </defs>
  
  <!-- Background -->
  <rect width="600" height="400" fill="url(#learningGrad)"/>
  
  <!-- System Overview Dashboard -->
  <g transform="translate(50, 50)">
    <rect x="0" y="0" width="500" height="250" rx="15" fill="#ffffff" opacity="0.95"/>
    
    <!-- Header -->
    <rect x="0" y="0" width="500" height="50" rx="15" fill="#4f46e5"/>
    <text x="20" y="30" font-family="Arial, sans-serif" font-size="18" font-weight="bold" fill="#ffffff">
      Personalized Learning Recommendation System
    </text>
    
    <!-- User Profile Section -->
    <g transform="translate(20, 70)">
      <text x="0" y="0" font-family="Arial, sans-serif" font-size="14" font-weight="bold" fill="#374151">
        Student Profile Analysis
      </text>
      
      <!-- Learning Path Visualization -->
      <circle cx="50" cy="30" r="15" fill="#10b981"/>
      <circle cx="120" cy="30" r="15" fill="#3b82f6"/>
      <circle cx="190" cy="30" r="15" fill="#f59e0b"/>
      <circle cx="260" cy="30" r="15" fill="#ef4444"/>
      
      <line x1="65" y1="30" x2="105" y2="30" stroke="#6b7280" stroke-width="2"/>
      <line x1="135" y1="30" x2="175" y2="30" stroke="#6b7280" stroke-width="2"/>
      <line x1="205" y1="30" x2="245" y2="30" stroke="#6b7280" stroke-width="2"/>
      
      <text x="35" y="55" font-family="Arial, sans-serif" font-size="10" fill="#6b7280">Basic</text>
      <text x="95" y="55" font-family="Arial, sans-serif" font-size="10" fill="#6b7280">Intermediate</text>
      <text x="165" y="55" font-family="Arial, sans-serif" font-size="10" fill="#6b7280">Advanced</text>
      <text x="240" y="55" font-family="Arial, sans-serif" font-size="10" fill="#6b7280">Expert</text>
    </g>
    
    <!-- Recommendation Engine -->
    <g transform="translate(320, 70)">
      <text x="0" y="0" font-family="Arial, sans-serif" font-size="14" font-weight="bold" fill="#374151">
        AI Recommendations
      </text>
      
      <rect x="0" y="15" width="140" height="25" rx="5" fill="#f3f4f6" stroke="#d1d5db"/>
      <text x="10" y="32" font-family="Arial, sans-serif" font-size="11" fill="#374151">📚 Machine Learning Basics</text>
      
      <rect x="0" y="45" width="140" height="25" rx="5" fill="#f3f4f6" stroke="#d1d5db"/>
      <text x="10" y="62" font-family="Arial, sans-serif" font-size="11" fill="#374151">🎯 Python Programming</text>
      
      <rect x="0" y="75" width="140" height="25" rx="5" fill="#f3f4f6" stroke="#d1d5db"/>
      <text x="10" y="92" font-family="Arial, sans-serif" font-size="11" fill="#374151">📊 Data Visualization</text>
    </g>
    
    <!-- Performance Analytics -->
    <g transform="translate(20, 150)">
      <text x="0" y="0" font-family="Arial, sans-serif" font-size="14" font-weight="bold" fill="#374151">
        Learning Analytics
      </text>
      
      <!-- Progress bars -->
      <text x="0" y="25" font-family="Arial, sans-serif" font-size="12" fill="#6b7280">Completion Rate</text>
      <rect x="0" y="30" width="200" height="10" fill="#e5e7eb" rx="5"/>
      <rect x="0" y="30" width="160" height="10" fill="#10b981" rx="5"/>
      <text x="210" y="40" font-family="Arial, sans-serif" font-size="11" fill="#374151">80%</text>
      
      <text x="0" y="60" font-family="Arial, sans-serif" font-size="12" fill="#6b7280">Engagement Score</text>
      <rect x="0" y="65" width="200" height="10" fill="#e5e7eb" rx="5"/>
      <rect x="0" y="65" width="180" height="10" fill="#3b82f6" rx="5"/>
      <text x="210" y="75" font-family="Arial, sans-serif" font-size="11" fill="#374151">90%</text>
    </g>
  </g>
  
  <!-- Title -->
  <rect x="0" y="320" width="600" height="80" fill="rgba(0,0,0,0.5)"/>
  <text x="30" y="350" font-family="Arial, sans-serif" font-size="24" font-weight="bold" fill="#ffffff">
    Learning Recommendation System Overview
  </text>
  <text x="30" y="375" font-family="Arial, sans-serif" font-size="14" fill="#e5e7eb">
    Personalized Education Through AI-Driven Analytics
  </text>
</svg>
